<svg xmlns="http://www.w3.org/2000/svg" viewBox="0 0 250 250" shape-rendering="crispEdges"><rect x="0" y="0" width="10" height="10"/><rect x="10" y="0" width="10" height="10"/><rect x="20" y="0" width="10" height="10"/><rect x="30" y="0" width="10" height="10"/><rect x="40" y="0" width="10" height="10"/><rect x="50" y="0" width="10" height="10"/><rect x="60" y="0" width="10" height="10"/><rect x="80" y="0" width="10" height="10"/><rect x="100" y="0" width="10" height="10"/><rect x="110" y="0" width="10" height="10"/><rect x="130" y="0" width="10" height="10"/><rect x="140" y="0" width="10" height="10"/><rect x="150" y="0" width="10" height="10"/><rect x="160" y="0" width="10" height="10"/><rect x="180" y="0" width="10" height="10"/><rect x="190" y="0" width="10" height="10"/><rect x="200" y="0" width="10" height="10"/><rect x="210" y="0" width="10" height="10"/><rect x="220" y="0" width="10" height="10"/><rect x="230" y="0" width="10" height="10"/><rect x="240" y="0" width="10" height="10"/><rect x="0" y="10" width="10" height="10"/><rect x="60" y="10" width="10" height="10"/><rect x="90" y="10" width="10" height="10"/><rect x="100" y="10" width="10" height="10"/><rect x="110" y="10" width="10" height="10"/><rect x="130" y="10" width="10" height="10"/><rect x="180" y="10" width="10" height="10"/><rect x="240" y="10" width="10" height="10"/><rect x="0" y="20" width="10" height="10"/><rect x="20" y="20" width="10" height="10"/><rect x="30" y="20" width="10" height="10"/><rect x="40" y="20" width="10" height="10"/><rect x="60" y="20" width="10" height="10"/><rect x="90" y="20" width="10" height="10"/><rect x="100" y="20" width="10" height="10"/><rect x="130" y="20" width="10" height="10"/><rect x="150" y="20" width="10" height="10"/><rect x="160" y="20" width="10" height="10"/><rect x="180" y="20" width="10" height="10"/><rect x="200" y="20" width="10" height="10"/><rect x="210" y="20" width="10" height="10"/><rect x="220" y="20" width="10" height="10"/><rect x="240" y="20" width="10" height="10"/><rect x="0" y="30" width="10" height="10"/><rect x="20" y="30" width="10" height="10"/><rect x="30" y="30" width="10" height="10"/><rect x="40" y="30" width="10" height="10"/><rect x="60" y="30" width="10" height="10"/><rect x="90" y="30" width="10" height="10"/><rect x="100" y="30" width="10" height="10"/><rect x="120" y="30" width="10" height="10"/><rect x="180" y="30" width="10" height="10"/><rect x="200" y="30" width="10" height="10"/><rect x="210" y="30" width="10" height="10"/><rect x="220" y="30" width="10" height="10"/><rect x="240" y="30" width="10" height="10"/><rect x="0" y="40" width="10" height="10"/><rect x="20" y="40" width="10" height="10"/><rect x="30" y="40" width="10" height="10"/><rect x="40" y="40" width="10" height="10"/><rect x="60" y="40" width="10" height="10"/><rect x="100" y="40" width="10" height="10"/><rect x="110" y="40" width="10" height="10"/><rect x="120" y="40" width="10" height="10"/><rect x="130" y="40" width="10" height="10"/><rect x="150" y="40" width="10" height="10"/><rect x="180" y="40" width="10" height="10"/><rect x="200" y="40" width="10" height="10"/><rect x="210" y="40" width="10" height="10"/><rect x="220" y="40" width="10" height="10"/><rect x="240" y="40" width="10" height="10"/><rect x="0" y="50" width="10" height="10"/><rect x="60" y="50" width="10" height="10"/><rect x="90" y="50" width="10" height="10"/><rect x="110" y="50" width="10" height="10"/><rect x="120" y="50" width="10" height="10"/><rect x="160" y="50" width="10" height="10"/><rect x="180" y="50" width="10" height="10"/><rect x="240" y="50" width="10" height="10"/><rect x="0" y="60" width="10" height="10"/><rect x="10" y="60" width="10" height="10"/><rect x="20" y="60" width="10" height="10"/><rect x="30" y="60" width="10" height="10"/><rect x="40" y="60" width="10" height="10"/><rect x="50" y="60" width="10" height="10"/><rect x="60" y="60" width="10" height="10"/><rect x="80" y="60" width="10" height="10"/><rect x="100" y="60" width="10" height="10"/><rect x="120" y="60" width="10" height="10"/><rect x="140" y="60" width="10" height="10"/><rect x="160" y="60" width="10" height="10"/><rect x="180" y="60" width="10" height="10"/><rect x="190" y="60" width="10" height="10"/><rect x="200" y="60" width="10" height="10"/><rect x="210" y="60" width="10" height="10"/><rect x="220" y="60" width="10" height="10"/><rect x="230" y="60" width="10" height="10"/><rect x="240" y="60" width="10" height="10"/><rect x="120" y="70" width="10" height="10"/><rect x="140" y="70" width="10" height="10"/><rect x="150" y="70" width="10" height="10"/><rect x="10" y="80" width="10" height="10"/><rect x="20" y="80" width="10" height="10"/><rect x="30" y="80" width="10" height="10"/><rect x="60" y="80" width="10" height="10"/><rect x="70" y="80" width="10" height="10"/><rect x="80" y="80" width="10" height="10"/><rect x="100" y="80" width="10" height="10"/><rect x="110" y="80" width="10" height="10"/><rect x="120" y="80" width="10" height="10"/><rect x="130" y="80" width="10" height="10"/><rect x="150" y="80" width="10" height="10"/><rect x="160" y="80" width="10" height="10"/><rect x="170" y="80" width="10" height="10"/><rect x="240" y="80" width="10" height="10"/><rect x="10" y="90" width="10" height="10"/><rect x="20" y="90" width="10" height="10"/><rect x="30" y="90" width="10" height="10"/><rect x="40" y="90" width="10" height="10"/><rect x="50" y="90" width="10" height="10"/><rect x="70" y="90" width="10" height="10"/><rect x="90" y="90" width="10" height="10"/><rect x="100" y="90" width="10" height="10"/><rect x="110" y="90" width="10" height="10"/><rect x="130" y="90" width="10" height="10"/><rect x="150" y="90" width="10" height="10"/><rect x="160" y="90" width="10" height="10"/><rect x="200" y="90" width="10" height="10"/><rect x="210" y="90" width="10" height="10"/><rect x="220" y="90" width="10" height="10"/><rect x="230" y="90" width="10" height="10"/><rect x="240" y="90" width="10" height="10"/><rect x="0" y="100" width="10" height="10"/><rect x="10" y="100" width="10" height="10"/><rect x="30" y="100" width="10" height="10"/><rect x="40" y="100" width="10" height="10"/><rect x="60" y="100" width="10" height="10"/><rect x="110" y="100" width="10" height="10"/><rect x="120" y="100" width="10" height="10"/><rect x="130" y="100" width="10" height="10"/><rect x="140" y="100" width="10" height="10"/><rect x="150" y="100" width="10" height="10"/><rect x="160" y="100" width="10" height="10"/><rect x="180" y="100" width="10" height="10"/><rect x="200" y="100" width="10" height="10"/><rect x="210" y="100" width="10" height="10"/><rect x="220" y="100" width="10" height="10"/><rect x="240" y="100" width="10" height="10"/><rect x="20" y="110" width="10" height="10"/><rect x="50" y="110" width="10" height="10"/><rect x="90" y="110" width="10" height="10"/><rect x="110" y="110" width="10" height="10"/><rect x="140" y="110" width="10" height="10"/><rect x="150" y="110" width="10" height="10"/><rect x="160" y="110" width="10" height="10"/><rect x="180" y="110" width="10" height="10"/><rect x="220" y="110" width="10" height="10"/><rect x="230" y="110" width="10" height="10"/><rect x="0" y="120" width="10" height="10"/><rect x="60" y="120" width="10" height="10"/><rect x="80" y="120" width="10" height="10"/><rect x="120" y="120" width="10" height="10"/><rect x="140" y="120" width="10" height="10"/><rect x="170" y="120" width="10" height="10"/><rect x="190" y="120" width="10" height="10"/><rect x="200" y="120" width="10" height="10"/><rect x="220" y="120" width="10" height="10"/><rect x="10" y="130" width="10" height="10"/><rect x="30" y="130" width="10" height="10"/><rect x="40" y="130" width="10" height="10"/><rect x="90" y="130" width="10" height="10"/><rect x="100" y="130" width="10" height="10"/><rect x="110" y="130" width="10" height="10"/><rect x="120" y="130" width="10" height="10"/><rect x="170" y="130" width="10" height="10"/><rect x="190" y="130" width="10" height="10"/><rect x="240" y="130" width="10" height="10"/><rect x="0" y="140" width="10" height="10"/><rect x="10" y="140" width="10" height="10"/><rect x="20" y="140" width="10" height="10"/><rect x="50" y="140" width="10" height="10"/><rect x="60" y="140" width="10" height="10"/><rect x="70" y="140" width="10" height="10"/><rect x="90" y="140" width="10" height="10"/><rect x="100" y="140" width="10" height="10"/><rect x="170" y="140" width="10" height="10"/><rect x="200" y="140" width="10" height="10"/><rect x="210" y="140" width="10" height="10"/><rect x="230" y="140" width="10" height="10"/><rect x="240" y="140" width="10" height="10"/><rect x="70" y="150" width="10" height="10"/><rect x="90" y="150" width="10" height="10"/><rect x="100" y="150" width="10" height="10"/><rect x="120" y="150" width="10" height="10"/><rect x="130" y="150" width="10" height="10"/><rect x="140" y="150" width="10" height="10"/><rect x="190" y="150" width="10" height="10"/><rect x="200" y="150" width="10" height="10"/><rect x="220" y="150" width="10" height="10"/><rect x="230" y="150" width="10" height="10"/><rect x="10" y="160" width="10" height="10"/><rect x="30" y="160" width="10" height="10"/><rect x="40" y="160" width="10" height="10"/><rect x="60" y="160" width="10" height="10"/><rect x="70" y="160" width="10" height="10"/><rect x="90" y="160" width="10" height="10"/><rect x="100" y="160" width="10" height="10"/><rect x="110" y="160" width="10" height="10"/><rect x="120" y="160" width="10" height="10"/><rect x="130" y="160" width="10" height="10"/><rect x="160" y="160" width="10" height="10"/><rect x="170" y="160" width="10" height="10"/><rect x="180" y="160" width="10" height="10"/><rect x="190" y="160" width="10" height="10"/><rect x="200" y="160" width="10" height="10"/><rect x="210" y="160" width="10" height="10"/><rect x="230" y="160" width="10" height="10"/><rect x="240" y="160" width="10" height="10"/><rect x="80" y="170" width="10" height="10"/><rect x="90" y="170" width="10" height="10"/><rect x="150" y="170" width="10" height="10"/><rect x="160" y="170" width="10" height="10"/><rect x="200" y="170" width="10" height="10"/><rect x="210" y="170" width="10" height="10"/><rect x="230" y="170" width="10" height="10"/><rect x="0" y="180" width="10" height="10"/><rect x="10" y="180" width="10" height="10"/><rect x="20" y="180" width="10" height="10"/><rect x="30" y="180" width="10" height="10"/><rect x="40" y="180" width="10" height="10"/><rect x="50" y="180" width="10" height="10"/><rect x="60" y="180" width="10" height="10"/><rect x="80" y="180" width="10" height="10"/><rect x="110" y="180" width="10" height="10"/><rect x="120" y="180" width="10" height="10"/><rect x="140" y="180" width="10" height="10"/><rect x="150" y="180" width="10" height="10"/><rect x="160" y="180" width="10" height="10"/><rect x="180" y="180" width="10" height="10"/><rect x="200" y="180" width="10" height="10"/><rect x="210" y="180" width="10" height="10"/><rect x="240" y="180" width="10" height="10"/><rect x="0" y="190" width="10" height="10"/><rect x="60" y="190" width="10" height="10"/><rect x="90" y="190" width="10" height="10"/><rect x="100" y="190" width="10" height="10"/><rect x="110" y="190" width="10" height="10"/><rect x="120" y="190" width="10" height="10"/><rect x="130" y="190" width="10" height="10"/><rect x="140" y="190" width="10" height="10"/><rect x="150" y="190" width="10" height="10"/><rect x="160" y="190" width="10" height="10"/><rect x="200" y="190" width="10" height="10"/><rect x="230" y="190" width="10" height="10"/><rect x="0" y="200" width="10" height="10"/><rect x="20" y="200" width="10" height="10"/><rect x="30" y="200" width="10" height="10"/><rect x="40" y="200" width="10" height="10"/><rect x="60" y="200" width="10" height="10"/><rect x="90" y="200" width="10" height="10"/><rect x="140" y="200" width="10" height="10"/><rect x="160" y="200" width="10" height="10"/><rect x="170" y="200" width="10" height="10"/><rect x="180" y="200" width="10" height="10"/><rect x="190" y="200" width="10" height="10"/><rect x="200" y="200" width="10" height="10"/><rect x="230" y="200" width="10" height="10"/><rect x="0" y="210" width="10" height="10"/><rect x="20" y="210" width="10" height="10"/><rect x="30" y="210" width="10" height="10"/><rect x="40" y="210" width="10" height="10"/><rect x="60" y="210" width="10" height="10"/><rect x="80" y="210" width="10" height="10"/><rect x="90" y="210" width="10" height="10"/><rect x="100" y="210" width="10" height="10"/><rect x="110" y="210" width="10" height="10"/><rect x="140" y="210" width="10" height="10"/><rect x="150" y="210" width="10" height="10"/><rect x="220" y="210" width="10" height="10"/><rect x="240" y="210" width="10" height="10"/><rect x="0" y="220" width="10" height="10"/><rect x="20" y="220" width="10" height="10"/><rect x="30" y="220" width="10" height="10"/><rect x="40" y="220" width="10" height="10"/><rect x="60" y="220" width="10" height="10"/><rect x="80" y="220" width="10" height="10"/><rect x="90" y="220" width="10" height="10"/><rect x="150" y="220" width="10" height="10"/><rect x="160" y="220" width="10" height="10"/><rect x="200" y="220" width="10" height="10"/><rect x="220" y="220" width="10" height="10"/><rect x="0" y="230" width="10" height="10"/><rect x="60" y="230" width="10" height="10"/><rect x="80" y="230" width="10" height="10"/><rect x="90" y="230" width="10" height="10"/><rect x="100" y="230" width="10" height="10"/><rect x="130" y="230" width="10" height="10"/><rect x="140" y="230" width="10" height="10"/><rect x="190" y="230" width="10" height="10"/><rect x="210" y="230" width="10" height="10"/><rect x="0" y="240" width="10" height="10"/><rect x="10" y="240" width="10" height="10"/><rect x="20" y="240" width="10" height="10"/><rect x="30" y="240" width="10" height="10"/><rect x="40" y="240" width="10" height="10"/><rect x="50" y="240" width="10" height="10"/><rect x="60" y="240" width="10" height="10"/><rect x="100" y="240" width="10" height="10"/><rect x="110" y="240" width="10" height="10"/><rect x="120" y="240" width="10" height="10"/><rect x="140" y="240" width="10" height="10"/><rect x="150" y="240" width="10" height="10"/><rect x="180" y="240" width="10" height="10"/><rect x="200" y="240" width="10" height="10"/><rect x="210" y="240" width="10" height="10"/><rect x="220" y="240" width="10" height="10"/><rect x="230" y="240" width="10" height="10"/><rect x="240" y="240" width="10" height="10"/></svg>